# xmcd
#
# Track frame offsets:
#	150
#	44202
#	88848
#	121338
#	146103
#	180879
#	217412
#
# Disc length: 3302
#
# Revision: 1
# Processed by: cddbd v1.5.1PL0 Copyright (c) Steve Scherf et al.
# Submitted via: CDex 1.50beta10
# Normalized: r0:TRMNUM
#
DISCID=6e0ce407
DTITLE=Fredrik Nordström Quintet - No sooner said than done
DYEAR=2005
DGENRE=Jazz
TTITLE0=Grimes Times
TTITLE1=Pizza Girl
TTITLE2=Got to get off
TTITLE3=Slow Motian
TTITLE4=Back on Track
TTITLE5=Ronnie Walker
TTITLE6=Cocoon
EXTD=YEAR: 2005
EXTT0=
EXTT1=
EXTT2=
EXTT3=
EXTT4=
EXTT5=
EXTT6=
PLAYORDER=
